<?xml version="1.0" standalone="no"?>
<!DOCTYPE svg PUBLIC "-//W3C//DTD SVG 20010904//EN"
 "http://www.w3.org/TR/2001/REC-SVG-20010904/DTD/svg10.dtd">
<svg version="1.0" xmlns="http://www.w3.org/2000/svg"
viewBox="0 0 600.000000 600.000000"
 preserveAspectRatio="xMidYMid meet">
<metadata>
Created by potrace 1.15, written by Peter Selinger 2001-2017
</metadata>
<g transform="translate(0.000000,600.000000) scale(0.100000,-0.100000)"
fill="#000000" stroke="none">
<path d="M2030 5968 c-83 -8 -331 -21 -427 -21 -34 -1 -60 -4 -57 -8 2 -4 -22
-9 -54 -12 -222 -20 -541 -133 -733 -260 -290 -191 -499 -467 -614 -812 -38
-112 -84 -324 -85 -383 0 -18 -3 -31 -7 -29 -5 3 -8 -23 -9 -56 0 -34 -5 -134
-10 -222 -12 -208 -12 -2132 0 -2340 5 -88 10 -188 10 -222 1 -33 4 -59 8 -56
5 2 8 -11 8 -29 1 -59 47 -271 85 -383 138 -412 408 -725 780 -905 171 -82
411 -153 567 -167 32 -3 56 -8 54 -12 -3 -4 23 -7 57 -8 119 -1 379 -13 387
-18 11 -7 1999 -7 2010 0 8 5 268 17 387 18 34 1 60 4 57 8 -2 4 22 9 54 12
89 8 238 42 357 82 487 163 827 503 990 990 38 112 84 324 85 383 0 18 3 31 8
29 4 -3 7 23 8 56 0 34 5 134 10 222 5 88 9 615 9 1170 0 556 -4 1082 -9 1170
-5 88 -10 188 -10 222 -1 33 -4 59 -8 56 -5 -2 -8 11 -8 29 -1 59 -47 271 -85
383 -138 412 -408 725 -780 905 -171 82 -411 153 -567 167 -32 3 -56 8 -54 12
3 4 -23 7 -57 8 -34 1 -102 4 -152 7 -141 10 -2121 22 -2205 14z m1900 -547
c0 -6 56 -9 133 -8 181 1 407 -18 407 -34 0 -5 7 -6 15 -2 20 7 133 -16 148
-31 7 -6 25 -12 41 -13 39 -3 145 -48 230 -98 83 -48 231 -186 291 -270 152
-214 222 -505 218 -902 0 -73 3 -133 8 -133 5 0 9 -391 9 -935 0 -544 -4 -935
-9 -935 -5 0 -8 -60 -7 -132 4 -394 -68 -690 -219 -903 -59 -84 -207 -222
-291 -271 -80 -47 -230 -108 -250 -100 -7 3 -14 0 -16 -5 -4 -13 -117 -42
-145 -36 -13 2 -23 1 -23 -3 0 -7 -76 -18 -205 -28 -38 -4 -130 -6 -202 -5
-77 1 -133 -2 -133 -8 0 -5 -364 -9 -935 -9 -571 0 -935 4 -935 9 0 6 -56 9
-132 8 -73 -1 -164 1 -203 5 -129 10 -205 21 -205 28 0 4 -10 5 -23 3 -28 -6
-141 23 -145 36 -2 5 -9 8 -16 5 -20 -8 -170 53 -250 100 -84 49 -232 187
-291 271 -151 213 -223 509 -219 902 1 73 -2 133 -7 133 -5 0 -9 391 -9 935 0
544 4 935 9 935 5 0 8 60 8 133 -4 398 66 688 218 902 60 84 208 222 291 270
85 50 191 95 230 98 16 1 34 7 41 13 15 15 128 38 148 31 8 -4 15 -3 15 2 0
16 226 35 408 34 76 -1 132 2 132 8 0 5 364 9 935 9 571 0 935 -4 935 -9z"/>
<path d="M4465 4921 c-62 -25 -109 -57 -150 -102 -41 -46 -85 -136 -85 -175 0
-14 -4 -22 -10 -19 -6 4 -10 -12 -10 -39 0 -25 4 -46 9 -46 4 0 11 -15 14 -33
20 -125 149 -254 274 -274 18 -3 33 -10 33 -14 0 -5 21 -9 46 -9 27 0 43 4 39
10 -3 6 5 10 19 10 37 0 126 42 170 80 144 127 166 324 55 486 -80 117 -276
178 -404 125z"/>
<path d="M2820 4518 c0 -5 -18 -8 -41 -8 -22 0 -49 -5 -60 -11 -11 -6 -42 -11
-69 -12 -26 -1 -46 -4 -44 -6 2 -2 -43 -19 -99 -38 -436 -146 -791 -492 -947
-922 -32 -87 -80 -284 -80 -328 0 -12 -3 -23 -7 -23 -5 0 -8 -79 -8 -175 0
-96 3 -175 8 -175 4 0 7 -11 7 -23 0 -40 47 -238 75 -317 42 -116 139 -297
213 -396 184 -246 451 -440 740 -537 56 -19 100 -36 98 -38 -2 -2 18 -5 44 -6
27 -1 58 -6 69 -12 11 -6 38 -11 60 -11 23 0 41 -3 41 -7 0 -5 79 -8 175 -8
96 0 175 3 175 8 0 4 18 7 41 7 22 0 49 5 60 11 11 6 42 11 69 12 26 1 46 4
44 6 -2 2 42 19 98 38 289 97 556 291 740 537 74 99 171 280 213 396 28 79 75
277 75 317 0 12 3 23 8 23 4 0 7 79 7 175 0 96 -3 175 -7 175 -5 0 -8 11 -8
23 0 40 -47 238 -75 317 -157 436 -513 786 -952 933 -56 19 -101 36 -99 38 2
2 -18 5 -44 6 -27 1 -58 6 -69 12 -11 6 -38 11 -60 11 -23 0 -41 3 -41 8 0 4
-79 7 -175 7 -96 0 -175 -3 -175 -7z m295 -544 c66 -8 121 -19 123 -24 2 -5 9
-7 15 -4 20 7 166 -52 251 -103 110 -65 274 -229 339 -339 187 -316 187 -702
0 -1018 -65 -110 -229 -274 -339 -339 -85 -51 -231 -110 -251 -103 -6 3 -13 1
-15 -4 -2 -5 -57 -16 -123 -24 -109 -15 -132 -15 -239 0 -248 32 -434 127
-602 308 -303 324 -354 797 -127 1180 65 110 229 274 339 339 85 51 231 110
251 103 6 -3 13 -1 15 4 2 7 155 33 228 39 9 0 70 -6 135 -15z"/>
</g>
</svg>
