<?xml version="1.0" standalone="no"?>
<!DOCTYPE svg PUBLIC "-//W3C//DTD SVG 20010904//EN"
 "http://www.w3.org/TR/2001/REC-SVG-20010904/DTD/svg10.dtd">
<svg version="1.0" xmlns="http://www.w3.org/2000/svg"
 viewBox="0 0 255.000000 175.000000"
 preserveAspectRatio="xMidYMid meet">
<metadata>
Created by potrace 1.15, written by Peter Selinger 2001-2017
</metadata>
<g transform="translate(0.000000,175.000000) scale(0.100000,-0.100000)"
fill="#000000" stroke="black">
<path d="M848 1740 c-265 -9 -443 -22 -538 -41 -147 -30 -231 -119 -263 -279
-53 -262 -54 -872 -1 -1123 35 -168 129 -260 294 -286 89 -15 1771 -15 1860 0
154 24 252 109 290 249 72 267 59 1071 -20 1256 -46 106 -149 174 -295 193
-217 29 -899 45 -1327 31z m679 -794 c79 -44 143 -84 143 -87 0 -5 -519 -308
-642 -376 -5 -2 -8 167 -8 376 l0 380 183 -106 c100 -58 246 -142 324 -187z"/>
</g>
</svg>
